<?xml version="1.0" encoding="utf-8"?>
<!-- Generator: Adobe Illustrator 22.0.1, SVG Export Plug-In . SVG Version: 6.00 Build 0)  -->
<svg version="1.1" id="lp" xmlns="http://www.w3.org/2000/svg" xmlns:xlink="http://www.w3.org/1999/xlink" x="0px" y="0px"
	 viewBox="0 0 892.4 905.9" style="enable-background:new 0 0 892.4 905.9;" xml:space="preserve">
<style type="text/css">
	.st0{fill:#CCCCCC;}
	.st1{fill:#3F3D56;}
	.st2{fill:#F2F2F2;}
	.st3{fill:#0056FF;}
	.st4{fill:#E6E6E6;}
	.st5{fill:#E55050;}
	.st6{fill:#FFB8B8;}
	.st7{fill:#2F2E41;}
	.st8{fill:#A0616A;}
	.st9{fill:#34A853;}
	.st10{fill:#FFB9B9;}
	.st11{fill:#FBBC05;}
	.st12{opacity:0.1;enable-background:new    ;}
	.st13{fill:#FFFFFF;}
</style>
<g id="tasks">
	<path class="st0" d="M315.1,765H234c-2.4,0-4.4-2-4.4-4.4s2-4.4,4.4-4.4h81.1c2.4,0,4.4,2,4.4,4.4S317.5,765,315.1,765z"/>
	<path class="st1" d="M209.8,769.4c-5.1,0-9.3-4.1-9.3-9.3c0-5.1,4.1-9.3,9.3-9.3c5.1,0,9.3,4.1,9.3,9.3
		C219,765.2,214.9,769.4,209.8,769.4z"/>
	<path class="st0" d="M315.1,791.4H234c-2.4,0-4.4-2-4.4-4.4s2-4.4,4.4-4.4h81.1c2.4,0,4.4,2,4.4,4.4S317.5,791.4,315.1,791.4z"/>
	<path class="st1" d="M209.8,795.8c-5.1,0-9.3-4.1-9.3-9.3s4.1-9.3,9.3-9.3s9.3,4.1,9.3,9.3C219,791.6,214.9,795.8,209.8,795.8z"/>
	<path class="st0" d="M315.1,817.8H234c-2.4,0-4.4-2-4.4-4.4s2-4.4,4.4-4.4h81.1c2.4,0,4.4,2,4.4,4.4S317.5,817.8,315.1,817.8z"/>
	<path class="st1" d="M209.8,822.2c-5.1,0-9.3-4.1-9.3-9.3c0-5.1,4.1-9.3,9.3-9.3c5.1,0,9.3,4.1,9.3,9.3
		C219,818.1,214.9,822.2,209.8,822.2z"/>
	<path class="st1" d="M338.1,786.9h23.5c0.3,0,0.6-0.5,0.6-1.1v-248c0-0.6-0.3-1.1-0.6-1.1c-0.3,0-0.6,0.5-0.6,1.1v246.9h-22.9
		c-0.3,0-0.6,0.5-0.6,1.1C337.5,786.4,337.7,786.9,338.1,786.9C338.1,786.9,338.1,786.9,338.1,786.9z"/>
</g>
<g id="scrum">
	<path class="st2" d="M156.3,347.8h-52.4c-10.5,0-19,8.5-19,19v56.8c-0.7,0-1.3-0.1-2-0.2c-36.8-3.9-63.5-36.8-59.6-73.6
		s36.8-63.5,73.6-59.6c30,3.2,54.1,25.9,59.1,55.6C156.1,346.4,156.2,347.1,156.3,347.8z"/>
	<path class="st1" d="M774.9,345.8h-671c-11.6,0-21,9.4-21,21v354c0,11.6,9.4,21,21,21h671c11.6,0,21-9.4,21-21v-354
		C795.8,355.2,786.4,345.8,774.9,345.8z M793.9,720.8c0,10.5-8.5,19-19,19h-671c-10.5,0-19-8.5-19-19v-354c0-10.5,8.5-19,19-19h671
		c10.5,0,19,8.5,19,19V720.8z"/>
	<path class="st1" d="M741.9,403.1h-605c-0.6,0-1-0.4-1-1s0.4-1,1-1h605c0.6,0,1,0.4,1,1S742.4,403.1,741.9,403.1z"/>
	<path class="st1" d="M307.9,698.8c-0.6,0-1-0.4-1-1v-329c0-0.6,0.4-1,1-1s1,0.4,1,1v329C308.9,698.3,308.4,698.8,307.9,698.8z"/>
	<path class="st1" d="M458.9,698.8c-0.6,0-1-0.4-1-1v-329c0-0.6,0.4-1,1-1s1,0.4,1,1v329C459.9,698.3,459.4,698.8,458.9,698.8z"/>
	<path class="st1" d="M609.9,698.8c-0.6,0-1-0.4-1-1v-329c0-0.6,0.4-1,1-1s1,0.4,1,1v329C610.9,698.3,610.4,698.8,609.9,698.8z"/>
	<path class="st3" d="M210.8,506.4h-36.5c-2.5,0-4.5-2-4.5-4.5v-43.1c0-2.5,2-4.5,4.5-4.5h36.5c2.5,0,4.5,2,4.5,4.5v43.1
		C215.3,504.3,213.3,506.3,210.8,506.4z"/>
	<path class="st3" d="M262.8,629.4h-36.5c-2.5,0-4.5-2-4.5-4.5v-43.1c0-2.5,2-4.5,4.5-4.5h36.5c2.5,0,4.5,2,4.5,4.5v43.1
		C267.3,627.3,265.3,629.3,262.8,629.4z"/>
	<path class="st3" d="M380.8,532.4h-36.5c-2.5,0-4.5-2-4.5-4.5v-43.1c0-2.5,2-4.5,4.5-4.5h36.5c2.5,0,4.5,2,4.5,4.5v43.1
		C385.3,530.3,383.3,532.3,380.8,532.4z"/>
	<path class="st3" d="M533.8,485.4h-36.5c-2.5,0-4.5-2-4.5-4.5v-43.1c0-2.5,2-4.5,4.5-4.5h36.5c2.5,0,4.5,2,4.5,4.5v43.1
		C538.3,483.3,536.3,485.3,533.8,485.4z"/>
	<path class="st3" d="M674.8,485.4h-36.5c-2.5,0-4.5-2-4.5-4.5v-43.1c0-2.5,2-4.5,4.5-4.5h36.5c2.5,0,4.5,2,4.5,4.5v43.1
		C679.3,483.3,677.3,485.3,674.8,485.4z"/>
	<path class="st4" d="M739.8,497.4h-36.5c-2.5,0-4.5-2-4.5-4.5v-43.1c0-2.5,2-4.5,4.5-4.5h36.5c2.5,0,4.5,2,4.5,4.5v43.1
		C744.3,495.3,742.3,497.3,739.8,497.4z"/>
	<path class="st4" d="M710.8,574.4h-36.5c-2.5,0-4.5-2-4.5-4.5v-43.1c0-2.5,2-4.5,4.5-4.5h36.5c2.5,0,4.5,2,4.5,4.5v43.1
		C715.3,572.3,713.3,574.3,710.8,574.4z"/>
	<path class="st5" d="M586.8,558.4h-36.5c-2.5,0-4.5-2-4.5-4.5v-43.1c0-2.5,2-4.5,4.5-4.5h36.5c2.5,0,4.5,2,4.5,4.5v43.1
		C591.3,556.3,589.3,558.3,586.8,558.4z"/>
	<path class="st4" d="M515.8,574.4h-36.5c-2.5,0-4.5-2-4.5-4.5v-43.1c0-2.5,2-4.5,4.5-4.5h36.5c2.5,0,4.5,2,4.5,4.5v43.1
		C520.3,572.3,518.3,574.3,515.8,574.4z"/>
	<path class="st4" d="M416.8,675.4h-36.5c-2.5,0-4.5-2-4.5-4.5v-43.1c0-2.5,2-4.5,4.5-4.5h36.5c2.5,0,4.5,2,4.5,4.5v43.1
		C421.3,673.3,419.3,675.3,416.8,675.4z"/>
	<path class="st5" d="M177.8,585.4h-36.5c-2.5,0-4.5-2-4.5-4.5v-43.1c0-2.5,2-4.5,4.5-4.5h36.5c2.5,0,4.5,2,4.5,4.5v43.1
		C182.3,583.3,180.3,585.3,177.8,585.4z"/>
	<path class="st4" d="M280.8,506.4h-36.5c-2.5,0-4.5-2-4.5-4.5v-43.1c0-2.5,2-4.5,4.5-4.5h36.5c2.5,0,4.5,2,4.5,4.5v43.1
		C285.3,504.3,283.3,506.3,280.8,506.4z"/>
	<path class="st0" d="M250.9,386.8h-57c-2.2,0-4-1.8-4-4s1.8-4,4-4h57c2.2,0,4,1.8,4,4S253.1,386.8,250.9,386.8z"/>
	<path class="st0" d="M411.9,386.8h-57c-2.2,0-4-1.8-4-4s1.8-4,4-4h57c2.2,0,4,1.8,4,4S414.1,386.8,411.9,386.8z"/>
	<path class="st0" d="M562.9,386.8h-57c-2.2,0-4-1.8-4-4s1.8-4,4-4h57c2.2,0,4,1.8,4,4S565.1,386.8,562.9,386.8z"/>
	<path class="st0" d="M703.9,386.8h-57c-2.2,0-4-1.8-4-4s1.8-4,4-4h57c2.2,0,4,1.8,4,4S706.1,386.8,703.9,386.8z"/>
	<path class="st6" d="M123.2,679.7c-5.5-0.5-9.6-5.5-9-11c0.1-0.6,0.2-1.2,0.3-1.7l-25.6-23.9l13.6-3.4l25.2,20.4
		c5.3,1.9,8,7.6,6.2,12.9C132.2,677.4,127.8,680.1,123.2,679.7L123.2,679.7z"/>
	<polygon class="st6" points="158.6,856 170.8,856 176.7,808.7 158.6,808.7 	"/>
	<path class="st3" d="M194.5,867.4l-38.5,0l0,0l0-14.9l0,0l23.6,0C187.8,852.5,194.5,859.2,194.5,867.4L194.5,867.4L194.5,867.4z"/>
	<polygon class="st6" points="74.5,847.2 86.4,850.3 104.2,806.1 86.7,801.5 	"/>
	<path class="st3" d="M106.3,867.4l-37.2-9.9l0,0l3.8-14.4l0,0l22.8,6.1C103.7,851.3,108.4,859.5,106.3,867.4L106.3,867.4
		L106.3,867.4z"/>
	<path class="st7" d="M174.1,847.1h-18.7c-2.4,0-4.5-1.9-4.7-4.3l-11.4-117.9c-0.2-2.1-2-3.6-4.1-3.4c-1.5,0.1-2.8,1.2-3.2,2.7
		l-33,110.2c-0.7,2.4-3.2,3.9-5.7,3.2L76,833.2c-2.5-0.6-4.1-3.2-3.5-5.8c0,0,0,0,0,0c0.3-1.1,28.4-111,28.7-112.2
		c6.4-47,14-59.6,18.1-66.3c0.3-0.6,0.7-1.1,0.9-1.6c0.4-0.6,2.5-6.6,3.9-10.6c0.4-1.3,1.2-2.4,2.4-3c17.2-8.8,37.3-2.7,43.1-0.6
		c1,0.3,1.8,1,2.3,1.8c17.3,26.1,8.8,177.5,6.9,207.6C178.7,845.1,176.6,847.1,174.1,847.1z"/>
	<circle class="st6" cx="125.9" cy="523.8" r="24.6"/>
	<path class="st0" d="M123.3,641.6l-0.2-0.2c-0.3-0.3-33.1-32.4-28.8-62c1.8-12.7,12.1-20.8,29.7-23.4c13.4-2,26.2,6.2,30,19.1
		l17.4,59.5L123.3,641.6z"/>
	<path class="st0" d="M106.5,664.4l-23.3-23.2c-3.2-3.2-4.6-7.9-3.5-12.4L91,582.9c1.4-5.6,7-8.9,12.5-7.6c0.2,0.1,0.4,0.1,0.7,0.2
		c5.4,1.7,8.4,7.4,6.8,12.8l-11.9,40.4l19.2,20.6L106.5,664.4z"/>
	<path class="st6" d="M231.6,585.3c-2.3,5-8.3,7.2-13.3,4.9c-0.5-0.2-1.1-0.5-1.5-0.9l-31.1,16.1l1.4-13.7l27.6-17.1
		c3.5-4.4,9.9-5.1,14.2-1.6C232.4,576.1,233.6,581.1,231.6,585.3L231.6,585.3z"/>
	<path class="st0" d="M213.3,595.5L183,608.6c-4.1,1.8-8.8,1.3-12.5-1.3l-38.6-27.6c-4.6-3.3-5.7-9.8-2.4-14.4
		c0.1-0.2,0.3-0.4,0.4-0.5c3.6-4.3,10-5,14.4-1.6l33.1,26l26.3-10.2L213.3,595.5z"/>
	<path class="st7" d="M129.9,531.7c3-3.8,8.7-4,12.9-6.5c5.5-3.3,7.7-10.6,5.9-16.7c-1.8-6.1-6.9-10.9-12.9-13.2s-12.5-2.3-18.8-1.2
		c-9.3,1.6-18.5,6-24.2,13.6c-5.7,7.6-7.1,18.7-2,26.6c2.4,3.7,6,6.7,7,10.9c1.2,5.6-2.7,11-6.9,14.8c-4.8,4.4-10.3,8.1-14.4,13.1
		s-7,11.8-5.1,18c1.6,5.2,6.3,9.1,11.4,11c5.1,1.9,10.7,2.2,16.1,2.3c5.3,0.1,10.9,0,15.4-2.9c4.8-3.1,7.3-8.9,7.5-14.5
		c0.2-5.7-1.7-11.2-4.2-16.3c-1.5-3-3.3-6-4.3-9.2s-1.2-6.9,0.4-9.9c1.7-3.1,5.1-5,8.6-5.7c0.2,0,0.4-0.1,0.6-0.1
		c4.1-0.5,6.9-4.2,6.4-8.3c0-0.1,0-0.2-0.1-0.3C128.9,535.1,128.9,533,129.9,531.7z"/>
	<polygon class="st8" points="457.4,857.1 445.1,857.1 439.3,809.8 457.4,809.8 	"/>
	<path class="st7" d="M436.4,853.6H460l0,0v14.9l0,0h-38.5l0,0l0,0C421.5,860.2,428.2,853.6,436.4,853.6L436.4,853.6z"/>
	<polygon class="st8" points="546.4,843.2 535.2,848.3 510.3,807.7 526.7,800.2 	"/>
	<path class="st7" d="M525.8,848.7l21.5-9.8l0,0l6.2,13.5l0,0l-35,16l0,0l0,0C515,861,518.3,852.1,525.8,848.7z"/>
	<path class="st8" d="M510.7,697.6c4.4-3.3,5.3-9.6,2-14.1c-0.4-0.5-0.8-0.9-1.2-1.3l14.4-32.7l-18.3,3.1l-10.9,30.6
		c-3.5,4.3-2.9,10.7,1.5,14.2C501.8,700.4,506.9,700.5,510.7,697.6z"/>
	<path class="st7" d="M456.6,844.6h-11.7c-2.4,0-4.3-1.8-4.5-4.2L434,669.9c-0.2-2.5,1.7-4.6,4.2-4.8c0.3,0,0.5,0,0.8,0l67.7,7.2
		c2.3,0.2,4,2.1,4.1,4.4l1.4,75.2c0,0.4,0.1,0.8,0.2,1.2l27.8,72.1c0.9,2.3-0.3,4.9-2.6,5.8c0,0,0,0-0.1,0l-11.9,4.4
		c-2.1,0.8-4.5-0.1-5.6-2.2L486,766.8c-0.2-0.4-0.3-0.7-0.4-1.1l-5.8-28.1c-0.4-1.9-2.2-3.1-4.1-2.7c-1.5,0.3-2.6,1.5-2.8,3
		l-11.8,102.7C460.8,842.9,458.9,844.6,456.6,844.6z"/>
	<circle class="st8" cx="462.5" cy="511.9" r="24.6"/>
	<path class="st9" d="M479.3,685.5c-16.7-0.2-32.9-5.1-46.9-14.2l-0.2-0.2l0-0.3l9.4-109.4c0.7-7.7,6.9-13.7,14.6-14.1
		c12.2-0.6,28.5,0.1,37.3,6.7c13.2,9.9,19.6,24.7,17.5,40.7c-4.4,33.2,0.6,78,1.2,83l0,0.4l-0.3,0.2
		C501.7,683,490.5,685.5,479.3,685.5z"/>
	<path class="st9" d="M512,677.9c-1.4,0-2.7-0.6-3.7-1.6l-5.4-5.9c-1.2-1.3-1.6-3.1-1.1-4.8l12.3-41.5L495.5,585
		c-0.9-1.8-1.1-3.9-0.6-5.9c1.2-4.7,5.9-7.6,10.6-6.5c2.4,0.6,4.5,2.2,5.7,4.4l25.3,41c2.1,3.4,2.4,7.6,0.7,11.2L516.6,675
		c-0.7,1.5-2.1,2.6-3.8,2.9C512.6,677.9,512.3,677.9,512,677.9z"/>
	<path class="st8" d="M338.9,598.7c4.5,3.3,10.8,2.4,14.1-2.1c0.4-0.5,0.7-1,0.9-1.5l35.4,4.6l-8.1-16.7l-32.4-1.8
		c-5.1-2.2-11.1,0.3-13.2,5.4C333.8,591,335.1,596,338.9,598.7z"/>
	<path class="st9" d="M417,607.8c-0.6,0-1.2,0-1.8-0.1l-55.8-7.7c-1.9-0.3-3.4-1.4-4.3-3.1c-0.1-0.3-0.2-0.5-0.3-0.8h0
		c-0.4-1.5-0.2-3.1,0.6-4.4l4.6-7.6c1-1.7,2.8-2.7,4.8-2.7h0l48.6,0.1l36.3-32.5c1.7-1.5,3.8-2.4,6.1-2.5c5.4-0.3,10,3.9,10.3,9.4
		c0.1,2.8-0.9,5.5-2.9,7.4L427,603.4C424.4,606.2,420.8,607.8,417,607.8z"/>
	<path class="st7" d="M465.2,533.8c2.2-5.2,4.1-12.1-0.2-15.8c-2.5-2.1-6.1-2.1-9.4-2.4c-9.2-0.7-18.7-5-23.2-13.1s-2-20.1,6.5-23.7
		c5.7-2.5,12.3-0.8,18.3,0.9l18,5.1c5.4,1.5,11,3.2,14.8,7.2c6.1,6.4,5.7,17.2,0.8,24.6c-4.9,7.4-12.2,15.1-20.6,17.9L465.2,533.8z"
		/>
</g>
<g id="man">
	<path class="st7" d="M700.4,828c0,0,4.8,16.4,7.9,20.6s5.8,11.1,4.2,12.2s-4.8,13.8-0.5,14.3s13.8-13.8,14.3-18.5
		c0.5-4.8,2.6-21.7,2.6-21.7s3.7-14.8-2.1-15.9c-5.8-1.1-14.8-1.6-14.8-1.6L700.4,828z"/>
	<path class="st7" d="M678.2,845.4c0,0-6.9,18-8.5,19.1s-7.4,10.6,4.2,10.6s18-3.2,18-3.2l3.7-4.2c0,0,0-11.1-1.1-12.7
		c-1.1-1.6,0-9.5,0-9.5H678.2z"/>
	<path class="st7" d="M631.1,680.8c0,0-8.5,57.2-1.1,75.7c7.4,18.5,14.8,23.8,14.8,23.8l56.1,52.4c0,0,17.5-9,15.9-14.8
		c0,0-3.7-2.1-4.2-3.7c-0.5-1.6-7.4-2.1-7.4-2.1s-3.2-3.7-3.2-5.8c0-2.1-27.5-39.7-36.5-42.3c0,0-4.8-5.8-4.2-6.9
		c0.5-1.1-1.6-4.8-1.6-4.8l5.3-20.6l33.3-5.3c0,0,13.8-48.7,2.1-52.4C688.8,670.2,631.1,680.8,631.1,680.8z"/>
	<path class="st7" d="M697.3,717.9l1.1,8.5c0,0,0,22.2-1.1,24.4c-1.1,2.1-1.6,5.3,0,7.4c1.6,2.1,4.2,7.4,3.2,9.5
		c-1.1,2.1,2.1,61.9-2.1,66.2s-2.6,9.5-2.1,10.1c0.5,0.5-0.5,2.6-0.5,2.6s-21.7,3.7-20.1,0c1.6-3.7,1.6-5.8,2.6-6.9
		c1.1-1.1,0-2.6,0-2.6s1.6-16.9,0-18s-6.4-51.9-6.4-52.4s-1.6-1.6-1.6-3.7c0-2.1,0-9-2.6-10.1c-2.6-1.1-2.1-27-2.1-27L697.3,717.9z"
		/>
	<path class="st10" d="M659.7,528.9c0,0,2.1,15.9,8.5,19.1c6.4,3.2,10.6,4.8,10.6,4.8l-5.3,18.5l-2.1,15.9H647l-13.2-10.6l4.2-17.5
		l2.1-3.2c0,0,2.6-11.6,0.5-15.4C638.5,536.8,659.7,528.9,659.7,528.9z"/>
	<path class="st11" d="M649.1,567.5l3.7,6.9c0,0,2.6-9.5,6.4-11.1c3.7-1.6,12.7-4.2,12.7-6.4c0-2.1-0.5-7.4,1.6-7.4
		c2.1,0,22.8,6.4,25.9,8.5c3.2,2.1,3.7,4.2,3.7,4.2l-5.8,60.9c0,0,8.5,28.6,5.8,39.7c-2.6,11.1-4.8,12.7-11.1,14.3
		c-6.4,1.6-2.6-3.7-21.2,1.6s-30.2,3.7-34.4,3.7s-6.9,2.1-7.9,2.6c-1.1,0.5-0.5-2.6,3.2-7.4c3.7-4.8,2.1-12.7,2.1-12.7
		s-4.2-13.8-1.6-19.1c2.6-5.3,6.4-12.2,3.2-14.3c-3.2-2.1-7.4-18-7.4-18l-11.6-41.3l23.8-16.4c0,0-1.1,7.4,2.6,9
		C646.4,566.5,649.1,567.5,649.1,567.5z"/>
	<path class="st11" d="M619.4,571.8h-3.2c0,0-5.3,9-5.3,15.4s2.6,42.3,2.6,42.3l15.4,15.9l3.7-12.2l1.1-27L619.4,571.8z"/>
	<path class="st11" d="M627.9,627.9c0,0-17.5-4.8-16.9,2.6s3.2,16.4,11.6,18.5c8.5,2.1,11.1-9.5,11.1-9.5S634.8,628.9,627.9,627.9z"
		/>
	<path class="st10" d="M693.5,652.2c0,0-1.1,24.4-7.4,27l15.4,3.7c0,0,7.4-25.4,6.4-26.5C706.8,655.4,693.5,652.2,693.5,652.2z"/>
	<path class="st7" d="M602.8,602.7l9.1-4c0.7-0.3,1.5,0,1.8,0.7l10.1,23.1c0.4,0.9,0,1.9-0.9,2.2l0,0l-8.5,3.7
		c-0.9,0.4-1.9,0-2.2-0.9c0,0,0,0,0,0L602,604.5C601.7,603.8,602,603,602.8,602.7L602.8,602.7z"/>
	<path class="st12" d="M602.8,602.7l9.1-4c0.7-0.3,1.5,0,1.8,0.7l10.1,23.1c0.4,0.9,0,1.9-0.9,2.2l0,0l-8.5,3.7
		c-0.9,0.4-1.9,0-2.2-0.9c0,0,0,0,0,0L602,604.5C601.7,603.8,602,603,602.8,602.7L602.8,602.7z"/>
	<path class="st7" d="M603.3,603.8l7.9-3.5c0.7-0.3,1.5,0,1.8,0.7l9.6,22c0.4,0.9,0,1.9-0.9,2.2l0,0l-7.4,3.2
		c-0.9,0.4-1.9,0-2.2-0.9c0,0,0,0,0,0l-9.6-22C602.2,605,602.6,604.2,603.3,603.8L603.3,603.8z"/>
	
		<ellipse transform="matrix(0.9164 -0.4003 0.4003 0.9164 -193.561 295.0841)" class="st2" cx="609.5" cy="610.8" rx="2.5" ry="2.6"/>
	<path class="st12" d="M697.5,569.4l3.4-5c0,0,12.7,19.6,11.6,32.8s-2.1,13.8-2.1,15.9c0,2.1-2.6,2.1,0,4.8c2.6,2.6,6.4,6.4,4.2,8.5
		c-2.1,2.1-3.7,2.1-3.2,4.8c0.3,1.9,0.5,3.9,0.5,5.8c0,0-4.5,8.7-6.1,8.7s-16.7,14-16.7,12.4c0-1.6,1.6-12.7,1.6-14.3
		c0-1.6,0.5-6.9,1.6-8.5c1.1-1.6,1.1-1.1,0-2.6s-1.1,0-1.1-1.6c0-1.6,0.5-3.7-1.1-4.2c-1.6-0.5-3.2,0-2.1-2.6c1.1-2.6,0-4.8-0.5-4.8
		c-0.5,0-3.2-0.5-1.6-2.1c1.6-1.6-3.2-32.3-3.2-32.3S683.8,577.3,697.5,569.4z"/>
	<path class="st11" d="M694.6,558l9,4.2c0,0,12.7,19.6,11.6,32.8c-1.1,13.2-2.1,13.8-2.1,15.9c0,2.1-2.6,2.1,0,4.8
		c2.6,2.6,6.4,6.4,4.2,8.5c-2.1,2.1-3.7,2.1-3.2,4.8c0.3,1.9,0.5,3.9,0.5,5.8c0,0-4.8,25.4-6.4,25.4s-16.4-2.6-16.4-4.2
		c0-1.6,1.6-12.7,1.6-14.3s0.5-6.9,1.6-8.5c1.1-1.6,1.1-1.1,0-2.6c-1.1-1.6-1.1,0-1.1-1.6s0.5-3.7-1.1-4.2s-3.2,0-2.1-2.6
		c1.1-2.6,0-4.8-0.5-4.8s-3.2-0.5-1.6-2.1c1.6-1.6-3.2-32.3-3.2-32.3S680.8,565.9,694.6,558z"/>
	<path class="st10" d="M614.3,631.7c-1,0.3-2.1-0.2-2.6-1.2c-2.4-4.9-9-19.1-2.9-19.6c5.7-0.4,10.7,10.6,12.8,15.9
		c0.5,1.3-0.1,2.8-1.4,3.3c-0.1,0-0.2,0.1-0.3,0.1L614.3,631.7z"/>
	<circle class="st10" cx="644.8" cy="524.1" r="19.6"/>
	<path class="st7" d="M637.7,512.8c-2.4,0.8-5,1.4-7.5,1.8c-1.9,0.3-4.2,0.5-5.5-0.9c-1.3-1.4-1.1-3.7-0.2-5.4
		c0.9-1.7,2.4-3,3.5-4.6c1.7-2.5,2.7-5.8,5.5-7c1.1-0.4,2.3-0.7,3.6-0.7c7.1-0.5,14.5-0.9,21.1,1.9c2.5,0.9,4.7,2.5,6.4,4.5
		c1.1,1.5,2,3.2,2.5,4.9c3.6,10.6,1.4,22.3-5.8,31c-2.4-2.2-1.4-7.2-4.4-8.3c-1-0.4-2.1-0.1-3.1-0.4c-3.2-0.9-3-5.9-5.7-7.9
		c-0.6-0.3-1.1-0.7-1.5-1.3c-0.2-0.5-0.3-1-0.3-1.6c0-1.9,0.9-6.6-0.9-7.9C643.3,509.8,639.4,512.2,637.7,512.8z"/>
</g>
<g id="message_1">
	<polygon class="st4" points="281.5,166.7 668.2,166.7 668.2,293.6 653.5,293.6 653.5,326.8 620.3,293.6 281.5,293.6 	"/>
	<rect x="292.3" y="179" class="st13" width="365.2" height="101.5"/>
	<rect x="321.6" y="208.7" class="st3" width="175.8" height="5.3"/>
	<rect x="321.6" y="227.1" class="st4" width="306.4" height="5.3"/>
	<rect x="321.6" y="245.6" class="st4" width="306.1" height="5.3"/>
</g>
<circle id="circle" class="st2" cx="783.7" cy="135.3" r="91.5"/>
<g id="tick_mark">
	<path class="st1" d="M568.8,548.6c-9,0-16.4-7.3-16.4-16.4s7.3-16.4,16.4-16.4s16.4,7.3,16.4,16.4
		C585.2,541.2,577.8,548.6,568.8,548.6z M568.8,516.4c-8.7,0-15.8,7.1-15.8,15.8s7.1,15.8,15.8,15.8s15.8-7.1,15.8-15.8
		C584.6,523.5,577.5,516.4,568.8,516.4z"/>
	<path id="tick" class="st13" d="M567,539.4c-0.5,0-0.9-0.1-1.3-0.4l0,0l-4.8-3.7c-0.9-0.7-1.1-2-0.4-3c0.7-0.9,2-1.1,3-0.4l0,0
		l3.1,2.4l7.3-9.5c0.7-0.9,2-1.1,3-0.4c0,0,0,0,0,0l0,0.1l0-0.1c0.9,0.7,1.1,2,0.4,3l-8.6,11.2C568.3,539.1,567.6,539.4,567,539.4z"
		/>
</g>
<g id="message_2">
	<polygon class="st4" points="447.8,11.6 61.2,11.6 61.2,138.5 75.8,138.5 75.8,171.7 109,138.5 447.8,138.5 	"/>
	<rect x="71.9" y="23.9" class="st13" width="365.2" height="101.5"/>
	<rect x="104.2" y="54.5" class="st3" width="175.8" height="5.3"/>
	<rect x="104.2" y="73" class="st4" width="306.4" height="5.3"/>
	<rect x="104.2" y="91.5" class="st4" width="306.1" height="5.3"/>
</g>
</svg>
